<?xml version="1.0" encoding="UTF-8"?>
<svg xmlns="http://www.w3.org/2000/svg" viewBox="0 0 617.14 617.14">
  <defs>
    <style>
      .cls-1 {
        fill: #231f20;
        stroke-width: 11px;
      }

      .cls-1, .cls-2, .cls-3, .cls-4, .cls-5 {
        stroke: #231f20;
        stroke-miterlimit: 10;
      }

      .cls-2 {
        fill: #ed2024;
      }

      .cls-2, .cls-3, .cls-4, .cls-5 {
        fill-rule: evenodd;
      }

      .cls-3 {
        fill: #cec890;
      }

      .cls-4 {
        fill: none;
        stroke-linecap: round;
        stroke-width: 29px;
      }

      .cls-5 {
        fill: #70ccd8;
      }
    </style>
  </defs>
  <g id="Layer_1" data-name="Layer 1">
    <path class="cls-5" d="M545.28,79.8c6.33-1.76,10.15,2.13,9.03,8.16-.94,4.98-5.15,9.9-8.97,13.45-6.48,5.94-13.61,11.01-21.16,15.14-4.96,2.77-10.32,4.68-15.52,6.91-11.75,4.79-18.44,16.96-11.44,28.17,3.08,4.62,9.37,7.7,14.69,10.11,20.88,8.9,19.73,22.19,15.48,41.93-1.3,6.37-2.47,13.41-5.87,18.95-3.92,6.64-11.41,7.65-14.03-.61-1.89-6.02-1.16-12.38-1.79-19.11-.36-4.08-1.2-8.12-2.91-11.56-3.72-7.16-10.5-11.95-17.83-9.87-5.31,1.65-8.74,6.05-12.25,10.25-5.15,6.33-10.82,12.23-17.11,18.55-7.22,6.8-14.35,15.54-23.97,18.64-8.48,2.18-11.23-4.86-8.1-12.07,2.19-5.68,6.29-11.02,9.93-15.97,4.91-6.65,10-13.99,13.33-21.23,3.65-7.81,6.1-17.12,7.38-25.97,1.48-10.52,2.66-23.89-9.78-25.52-6.83-.71-14.15,1.3-20.44,4.05-7.11,3.04-13.41,8.59-20.96,9.08-7.24,0-7.68-7.63-4.58-13.13,2.37-4.48,6.25-8.02,10.35-10.94,13.57-9.93,30.98-13.61,47.79-12.54,24.78,1.31,43.57.86,65.85-11.99,7.44-3.97,14.91-10.46,22.75-12.84l.11-.03Z"/>
    <path class="cls-5" d="M475.7,49.26c24.74-3.21,35.77,27.72,15.83,41.43-9.28,6.32-22.31,4.06-29.15-4.82-10.82-13.01-4.27-34.27,13.18-36.59l.14-.02Z"/>
  </g>
  <g id="Layer_3" data-name="Layer 3">
    <path class="cls-3" d="M307.21,209.71c-2.22-2.4-4.05-4.97-3.77-8.41.9-6.83,4.61-13.81,5.17-21,2.4-18.8-7.49-36.85-18.43-46.35-3.09-2.69-6.51-4.4-10.28-6.47-9.39-4.3-9.59-14.57-12.91-22.84-8.9-17.55-29.07-30.09-52.51-27.56-7.38.82-14.27,4.43-20.29,8.29-2.61,1.61-5.61,3.08-8.04,2.83-11.71-2.75-24.21-12.08-37-12.03-16.61-.05-33.31,10.83-41.64,21.04-4.17,4.94-5.14,12.63-9.56,17.48-5.37,5.45-13.94,6.37-19.73,11.39-7.94,6.13-13,15.77-16.52,25.61-3.21,8.03-3.84,17.65-2.78,25.94.72,6.88-4.43,11.62-8.51,16.66-15.12,16.31-16.83,42.42-6.51,61.76,7.32,14.12,20.02,24.66,33.42,29.48,2.06.82,4.19,1.85,5.48,3.61,1.53,1.89,2.04,4.89,2.43,7.45,3.92,27.26,26.55,54.44,54.88,57.63,18.54,2.34,38.54-7.44,49.62-22.02,6.83-9.29,8.57-21.17,8.06-32.47v-69.68c.02-3.87.09-8.24,2.26-11.45,7.86-9.67,27.31-8.85,38.43-14.8,6.23-2.68,9.82-9.75,6.85-16.03-4.09-7.42-15.63-4.1-23.16-3.27-6.15,1.11-12.24,2.85-16.82,4.94-3.6,1.7-7.09,3.17-7.41-2.56-.36-22.34-.11-44.81-.09-67.18.14-4.02,1.21-7.85,3.78-11,4.39-5.34,11.46-8.99,18.47-9.59,12.34-1.19,20.05,7.75,25.76,15.5,1.58,2.19,3.43,5.08,1.98,7.67-3.59,5.79-19.89,10.28-15.4,20.52,8.49,18.46,26.6-7.23,44.14,9.54,8.87,8.05,10.73,24.31,6.54,36.14-1.58,4.73-5.52,7.32-8.37,11.13-3.23,4.59-2.02,11.26,2.3,14.7,4.33,3.53,9.77,5.61,13.25,10.23,8.32,10.99,10.63,27.31,5.33,40.5-2.03,4.62-7.73,13.55-13.5,11.93l-.1-.05c-2.12-1.16-2.99-4.33-3.99-6.59-5.47-13.41-19.16-24.75-34.69-27.76-8.13-2.16-15.24,4.01-15.31,11.9.67,8.31,17.44,10.43,23.06,16.73,6.46,6.26,9.24,16.3,9.53,25.22-.16,12.52-10.52,22.97-22.5,25.8-7.03,2.1-15.88-.78-22.2,2.16-3.54,1.84-5.54,7.89-4.06,12.22,1.44,5.16,7.67,7.42,12.93,7.85,24.76,1.98,48.82-10.74,55.13-30.76,1.41-5.43,4.91-9.84,9.95-12.35,12.63-6.92,22.7-17.22,27.8-30.72,8.11-20.7,1.85-47.67-10.47-60.91ZM176.29,151.48c-.81,40.98-.1,81.51-.32,122.46-.03,7.66.23,16.64-.1,24.54-.29,7.48-1.51,16.33-5.67,21.93-4.1,5.52-10.93,8.9-18.18,10.25-17.79,2.84-34.46-10.57-41.31-25.52-6.86-15.34-3.73-27.23,14.64-30.35,6.15-1.55,14.43-1.51,19.27-5.32,3.72-3.1,3.49-8.94,1.12-12.8-3.46-6.28-13.28-6.29-20.05-5.43-10.49,1.06-19.51,4.3-27.3,10.75-6.74,5.25-16.3,1.92-22.72-2.3-8.82-6.04-14.81-15.5-15.66-26.65-.49-9.91,2.49-22.62,10.65-28.63,8.84-5.27,19.12,9.62,27.59-1.81,2.48-3.46,2.75-8.26.51-11.78-2.56-4.43-7.99-6.23-11.9-9.31-3.28-2.55-5.18-6.59-5.7-10.7-1.5-11.23,4.2-18.38,11.5-24.8,9.54-8.6,15.1-.45,21.31,6.86,4.3,4.75,9.5,7.56,15.66,9.49,2.57.78,5.26,1.38,7.96,1.65,7.98,1.31,16.45-4.83,13.58-13.37-2.9-7.63-12.35-7.71-18.27-11.85-6.71-4.91-12.17-13.94-9.74-22.41,1.72-5.74,6.55-9.16,11.57-11.91,2.75-1.57,5.74-3.08,9.16-3.87l.21-.05c9.23-1.94,22.19.97,27.44,7.52,3.47,4.14,4.53,8.04,4.99,14.06.62,8.19.11,20.33-.24,29.35Z"/>
    <path class="cls-3" d="M156.57,198.1c-3.09,20.75-20.43,40.27-35.18,27.1-3.37-3.76-2.68-9.19,1.03-12.6,3.66-3.52,8.76-6.67,10.9-10.94,3.24-6.31,1.13-15.45,9.44-18.3l.18-.06c4-1.27,8.74-.05,11.52,3,2.61,2.95,2.8,7.88,2.11,11.8Z"/>
  </g>
  <g id="Layer_2" data-name="Layer 2">
    <path class="cls-2" d="M362.91,355.52c9.77,6.8,13.93,25.1,18.04,37.94,14.27,48.93,17.5,21.66,46.03,9.94,11.64-4.28,24.57-3.42,37.75-3.55,4.48,0,9.08,0,13.51.27,5.08.3,10.97.95,15.21,2.09,11.02,3.15-1.94,5.9-6.77,6.4-14.27,2.12-30.56-.17-44.32,2.5-6.67,1.26-13.06,3.79-18.51,7.86-4.53,3.34-8.33,7.67-11.98,12.01-4.89,5.54-10.2,13.91-16.78,15.34-4.83,1.21-10.17-4.67-13.03-10.68-3.82-7.23-7.07-18.35-9.73-27.81-3.37-11.02-5.08-18.76-9.8-25.08-2.7-3.47-6.02-2.15-8.88.65-7.39,7.29-14.69,17.45-24.91,21.67-12.61,5.6-27.7,4.42-42.16,4.58-12.69-.15-25.85.44-38.43-.58-11.79-.8-25.91-4.99-4.58-8.15,17.14-2.03,34.87-.71,52.11-1.14,18.42.05,33.5-4.81,43.43-21.05,1.83-2.78,3.58-5.72,5.28-8.57,4.45-6.88,9.94-19.03,18.4-14.73l.1.05Z"/>
    <g>
      <path class="cls-1" d="M135.52,599.86c0,1.22-.57,2.35-1.49,2.88-7.95,4.57-17.68,6.85-29.19,6.85-15.8,0-28.46-6.05-37.96-18.16-9.5-12.1-14.25-27.99-14.25-47.65,0-21.14,5.34-38.22,16.03-51.25,10.69-13.03,24.25-19.54,40.67-19.54,9.66,0,17.8,1.53,24.42,4.57,1.06.49,1.76,1.68,1.76,3.02v5.68c0,2.33-4.14,4.14-5.92,3.17-6.92-3.76-12.32-2.44-20.41-2.44-12.76,0-27.91,5.07-35.84,15.21-7.93,10.14-7.07,23.69-7.07,40.65s3.7,28.93,11.12,38.48c7.41,9.56,17.13,14.33,29.16,14.33,9.43,0,17.79-2.11,25.08-6.33,1.8-1.04,3.89.51,3.89,2.89v7.63Z"/>
      <path class="cls-1" d="M202.22,578.98h-6.9c-1.42,0-2.57-1.15-2.57-2.57v-9.18h-.29c-5.24,9-12.94,13.51-23.12,13.51-7.49,0-13.35-1.98-17.58-5.95-4.23-3.96-6.35-9.22-6.35-15.78,0-14.04,8.27-22.21,24.81-24.51l20.26-2.84c1.31-.18,2.28-1.34,2.21-2.66-.61-11.21-5.75-16.81-15.42-16.81-7.42,0-14.26,2.07-20.49,6.22-1.72,1.14-4.02-.04-4.02-2.11v-5.75c0-.9.46-1.74,1.23-2.2,7.1-4.19,15.2-6.29,24.31-6.29,17.66,0,26.5,9.35,26.5,28.04v46.32c0,1.42-1.15,2.57-2.57,2.57ZM192.75,543.9c0-1.56-1.37-2.76-2.92-2.54l-15.21,2.09c-5.58.78-9.79,2.17-12.62,4.15-2.84,1.98-4.26,5.49-4.26,10.53,0,3.67,1.31,6.67,3.93,8.99,2.62,2.32,6.1,3.49,10.46,3.49,5.97,0,10.9-2.09,14.79-6.28,3.89-4.18,5.83-9.48,5.83-15.89v-4.54Z"/>
      <path class="cls-1" d="M239.8,563.11h-.29v42.87c0,1.42-1.15,2.57-2.57,2.57h-6.9c-1.42,0-2.57-1.15-2.57-2.57v-104.6c0-1.42,1.15-2.57,2.57-2.57h6.9c1.42,0,2.57,1.15,2.57,2.57v10.64h.29c5.92-9.98,14.58-14.97,25.98-14.97,9.69,0,17.25,3.36,22.68,10.09,5.43,6.73,8.15,15.74,8.15,27.05,0,12.58-3.06,22.64-9.17,30.2-6.12,7.56-14.48,11.34-25.1,11.34-9.74,0-17.25-4.21-22.53-12.62ZM239.5,532.8v10.5c0,6.21,2.02,11.49,6.06,15.82,4.04,4.33,9.16,6.5,15.38,6.5,7.29,0,13-2.79,17.14-8.37,4.13-5.58,6.2-13.33,6.2-23.27,0-8.37-1.93-14.92-5.8-19.67-3.87-4.75-9.1-7.12-15.71-7.12-7,0-12.62,2.43-16.88,7.3-4.26,4.87-6.39,10.97-6.39,18.31Z"/>
      <path class="cls-1" d="M350.7,579.62c0,1.03-.6,1.97-1.55,2.36-2.61,1.07-5.83,1.61-9.68,1.61-13.16,0-19.74-7.34-19.74-22.02v-41.91c0-1.42-1.15-2.57-2.57-2.57h-7.78c-1.42,0-2.57-1.15-2.57-2.57v-5.14c0-1.42,1.15-2.57,2.57-2.57h7.78c1.42,0,2.57-1.15,2.57-2.57v-13.91c0-15.37.54-9.15,1.6-9.49l7.08,4.82c1.66-.54,3.36-8.28,3.36-6.54v25.12c0,1.42,1.15,2.57,2.57,2.57h13.8c1.42,0,2.57,1.15,2.57,2.57v5.14c0,1.42-1.15,2.57-2.57,2.57h-13.8c-1.42,0-2.57,1.15-2.57,2.57v39.78c0,5.04.86,8.64,2.57,10.79,1.71,2.15,4.55,3.23,8.51,3.23,1.62,0,3.13-.24,4.51-.71,1.64-.56,3.34.7,3.34,2.44v4.43Z"/>
      <path class="cls-1" d="M424.98,578.98h-6.9c-1.42,0-2.57-1.15-2.57-2.57v-9.32h-.29c-4.99,9.1-12.72,13.65-23.19,13.65-17.91,0-26.86-10.67-26.86-32v-42.35c0-1.42,1.15-2.57,2.57-2.57h6.83c1.42,0,2.57,1.15,2.57,2.57v40.44c0,15.85,6.07,23.78,18.2,23.78,5.87,0,10.7-2.17,14.5-6.5,3.79-4.33,5.69-9.99,5.69-16.99v-40.74c0-1.42,1.15-2.57,2.57-2.57h6.9c1.42,0,2.57,1.15,2.57,2.57v70.03c0,1.42-1.15,2.57-2.57,2.57Z"/>
      <path class="cls-1" d="M491.04,511.89c0,1.72-1.66,2.96-3.3,2.45s-3.57-.76-5.8-.76c-5.14,0-9.43,2.42-12.88,7.27s-5.17,11.45-5.17,19.82v35.75c0,1.42-1.15,2.57-2.57,2.57h-6.9c-1.42,0-2.57-1.15-2.57-2.57v-70.03c0-1.42,1.15-2.57,2.57-2.57h6.9c1.42,0,2.57,1.15,2.57,2.57v12.92h.29c1.71-5.28,4.33-9.41,7.85-12.37,3.52-2.96,7.46-4.44,11.82-4.44,2.04,0,3.77.15,5.19.44,1.18.24,2.01,1.31,2.01,2.51v6.45Z"/>
      <path class="cls-1" d="M561.94,544.41h-47.79c-1.49,0-2.69,1.27-2.56,2.76.58,7.04,2.79,12.58,6.61,16.62,4.31,4.55,10.23,6.83,17.76,6.83,6.92,0,13.38-1.86,19.38-5.59,1.73-1.07,3.96.12,3.96,2.16v5.02c0,.84-.4,1.65-1.11,2.12-6.46,4.28-14.83,6.43-25.1,6.43s-18.96-3.41-25.03-10.24c-6.07-6.83-9.1-16.43-9.1-28.81,0-11.69,3.31-21.22,9.95-28.59,6.63-7.36,14.86-11.05,24.7-11.05s17.44,3.18,22.83,9.54c5.38,6.36,8.07,15.19,8.07,26.5v3.75c0,1.42-1.15,2.57-2.57,2.57ZM549.51,534.2c1.48,0,2.67-1.25,2.56-2.72-.42-5.65-2.06-10.15-4.92-13.5-2.5-2.92-5.73-4.74-9.7-5.45-7.66-1.38-15.59,1.7-20.36,7.86-2.31,2.99-3.95,6.53-4.91,10.63-.38,1.62.83,3.19,2.5,3.19h34.83Z"/>
    </g>
  </g>
  <g id="Layer_4" data-name="Layer 4">
    <path class="cls-4" d="M354.16,101.9c16.61-44.05,63.1-84.98,119.9-84.72,65.08.3,127.15,54.62,127.15,127.15s-56.93,127.15-127.15,127.15c-58.22,0-103.71-45.73-119.63-83.99-4.08-9.8-8.91-22.55-11.28-28.96-17.76-48.03-73.58-112.8-158.29-113.2C103.7,44.94,15.94,114.84,15.94,214.25c0,95.37,80.78,169.06,168.93,168.93,72.5-.11,139.41-50.15,163-124.41"/>
    <path class="cls-4" d="M507.6,267.26c-83.42,75.39-49.32,48.24,60.01,18.95,39.32-10.54-52.8,62.56-46.86,102.05,5.84,38.81,32.87,83.71-6.38,83.71H133.01c-2.88,0-4.55-3.27-2.85-5.6l57.98-79.83"/>
  </g>
</svg>